<svg width="21" height="21" viewBox="0 0 21 21" fill="none" xmlns="http://www.w3.org/2000/svg">
<g id="Frame">
<path id="Vector" d="M7.41626 18.0488H19.2815V19.2343H7.41626V18.0488ZM1.79907 4.59955C2.14087 3.09955 3.03931 2.46674 4.49634 2.69916C7.48462 3.98432 10.2405 12.1484 10.2405 12.1484H17.0081C17.9026 12.1484 19.2795 12.9804 19.2795 14.5507C19.2795 16.121 18.2288 16.8632 17.3479 16.8632H7.7522C7.74048 16.8632 5.7561 12.7753 1.79907 4.59955ZM7.32251 13.2792C7.8186 14.3007 8.1897 15.0664 8.4397 15.5761C8.45728 15.6113 8.4729 15.6445 8.48853 15.6757H17.3499C17.7327 15.6757 18.094 15.3046 18.094 14.5507C18.094 13.8652 17.4963 13.3339 17.0081 13.3339H9.39087L9.11743 12.5273C9.09985 12.4765 9.09985 12.4765 9.08423 12.4296C9.04321 12.3144 9.01978 12.248 8.98071 12.1367C8.86548 11.8183 8.73071 11.4628 8.58032 11.0781C8.14868 9.98627 7.66821 8.89252 7.15259 7.8769C6.08228 5.76948 5.00415 4.30659 4.15259 3.84956C3.55884 3.78315 3.25806 3.94721 3.06274 4.48627C4.9436 8.37299 6.36353 11.3027 7.32251 13.2792Z" fill="#999999" stroke="#999999" stroke-width="0.3"/>
<path id="Vector_2" d="M7.66626 8.55664C9.37915 9.57617 10.6877 9.98047 11.592 9.76367C12.9495 9.44141 13.2776 8.55664 15.0706 8.55664C16.842 8.55664 17.3479 10.0977 16.5901 13.1797L9.87915 13.3496L7.66626 8.55664ZM10.6311 12.1445L15.635 12.0176C15.9709 10.2754 15.7131 9.74414 15.0725 9.74414C14.4319 9.74414 14.1487 9.8418 13.5159 10.207L13.4495 10.2461C12.8303 10.6055 12.4475 10.7812 11.8674 10.9199C11.3167 11.0508 10.7131 11.0371 10.0491 10.8848L10.6311 12.1445Z" fill="#999999" stroke="#999999" stroke-width="0.3"/>
</g>
</svg>
