<svg width="21" height="21" viewBox="0 0 21 21" fill="none" xmlns="http://www.w3.org/2000/svg">
<g id="Frame">
<path id="Vector" d="M14.151 8.59729H6.96956C6.63875 8.59729 6.3711 8.86492 6.3711 9.19574C6.3711 9.52656 6.63875 9.7942 6.96956 9.7942H14.151C14.4818 9.7942 14.7494 9.52654 14.7494 9.19574C14.7494 8.86494 14.4818 8.59729 14.151 8.59729ZM14.151 6.2034H6.96956C6.63875 6.2034 6.3711 6.47106 6.3711 6.80186C6.3711 7.13266 6.63875 7.40031 6.96956 7.40031H14.151C14.1511 7.40031 14.1512 7.40031 14.1514 7.40031C14.4817 7.40031 14.7494 7.13254 14.7494 6.80225C14.7494 6.80211 14.7494 6.80199 14.7494 6.80186C14.7494 6.80176 14.7494 6.8017 14.7494 6.80158C14.7494 6.47123 14.4816 6.20342 14.1513 6.20342C14.1511 6.20342 14.1511 6.20342 14.1509 6.20342L14.151 6.2034ZM17.1432 13.306V5.00648C17.1432 4.34553 16.6073 3.80957 15.9463 3.80957H5.17409C4.51313 3.80957 3.97717 4.34555 3.97717 5.00648V16.9756C3.97717 17.6366 4.51315 18.1725 5.17409 18.1725H12.2335C12.2697 18.1804 12.3114 18.1848 12.354 18.1848C12.5192 18.1848 12.6687 18.1178 12.7769 18.0094L16.9737 13.8127C17.0821 13.7046 17.1491 13.555 17.1491 13.3898C17.1491 13.3603 17.147 13.3312 17.1428 13.3028L17.1432 13.306ZM12.9541 16.1399V13.9833H15.1107L12.9541 16.1399ZM15.9463 12.7864H12.3556C12.3555 12.7864 12.3555 12.7864 12.3553 12.7864C12.025 12.7864 11.7572 13.0542 11.7572 13.3846C11.7572 13.3847 11.7572 13.3847 11.7572 13.3849L11.7573 13.388L11.7572 13.3912V16.9755H5.77264C5.77252 16.9755 5.77249 16.9755 5.77235 16.9755C5.44202 16.9755 5.17418 16.7077 5.17418 16.3773C5.17418 16.3772 5.17418 16.3772 5.17418 16.377V5.60496C5.17418 5.60484 5.17418 5.6048 5.17418 5.60467C5.17418 5.27432 5.44202 5.0065 5.77235 5.0065C5.77249 5.0065 5.77252 5.0065 5.77268 5.0065H15.3479C15.3481 5.0065 15.3481 5.0065 15.3483 5.0065C15.6786 5.0065 15.9464 5.27428 15.9464 5.60459C15.9464 5.60473 15.9464 5.60484 15.9464 5.60498V12.7864H15.9463Z" fill="#0083FF" stroke="#0083FF" stroke-width="0.3"/>
</g>
</svg>
