<svg width="21" height="21" viewBox="0 0 21 21" fill="none" xmlns="http://www.w3.org/2000/svg">
<g id="Frame" clip-path="url(#clip0_15_9417)">
<path id="Vector" d="M18.5089 17.2345H2.61658C1.51987 17.2345 0.622559 16.3372 0.622559 15.2405V2.97729C0.622559 1.88058 1.51987 0.983276 2.61658 0.983276H18.5089C19.6056 0.983276 20.5029 1.88058 20.5029 2.97729V15.2405C20.5029 16.3372 19.6156 17.2345 18.5089 17.2345ZM2.62655 2.57849C2.4072 2.57849 2.22774 2.75795 2.22774 2.97729V15.2405C2.22774 15.4598 2.4072 15.6393 2.62655 15.6393H18.5089C18.7282 15.6393 18.9077 15.4598 18.9077 15.2405V2.97729C18.9077 2.75795 18.7282 2.57849 18.5089 2.57849H2.62655Z" fill="#999999"/>
<path id="Vector_2" d="M9.77515 16.2175H11.3704V20.4149H9.77515V16.2175Z" fill="#999999"/>
<path id="Vector_3" d="M15.8569 20.9433H5.28857C4.84989 20.9433 4.49097 20.5844 4.49097 20.1457C4.49097 19.707 4.84989 19.3481 5.28857 19.3481H15.8569C16.2956 19.3481 16.6545 19.707 16.6545 20.1457C16.6545 20.5844 16.2956 20.9433 15.8569 20.9433ZM16.475 16.4767H15.2786C15.2786 13.8745 13.1649 11.7609 10.5628 11.7609C7.96056 11.7609 5.8469 13.8745 5.8469 16.4767H4.65049C4.65049 13.2165 7.30253 10.5645 10.5628 10.5645C13.823 10.5645 16.475 13.2165 16.475 16.4767Z" fill="#999999"/>
<path id="Vector_4" d="M10.5727 11.6712C8.55876 11.6712 6.9137 10.0361 6.9137 8.01217C6.9137 5.98824 8.54879 4.35315 10.5727 4.35315C12.5867 4.35315 14.2317 5.98824 14.2317 8.01217C14.2317 10.0361 12.5867 11.6712 10.5727 11.6712ZM10.5727 5.54956C9.21679 5.54956 8.11011 6.65624 8.11011 8.01217C8.11011 9.3681 9.21679 10.4748 10.5727 10.4748C11.9287 10.4748 13.0254 9.3681 13.0254 8.01217C13.0254 6.65624 11.9287 5.54956 10.5727 5.54956Z" fill="#999999"/>
</g>
<defs>
<clipPath id="clip0_15_9417">
<rect width="20" height="20" fill="white" transform="translate(0.562744 0.943359)"/>
</clipPath>
</defs>
</svg>
