<svg width="21" height="21" viewBox="0 0 21 21" fill="none" xmlns="http://www.w3.org/2000/svg">
<g id="Frame">
<path id="Vector" d="M16.1884 19.0687H4.93694C3.90218 19.0687 3.06226 18.2288 3.06226 17.194V4.6961C3.06226 3.66133 3.90218 2.82141 4.93694 2.82141H16.1851C17.2198 2.82141 18.0597 3.66131 18.0597 4.6961V17.194C18.0631 18.2254 17.2198 19.0687 16.1884 19.0687ZM4.93694 4.06784C4.59427 4.06784 4.31206 4.35006 4.31206 4.69274V17.1906C4.31206 17.5367 4.59427 17.8155 4.93694 17.8155H16.1851C16.5311 17.8155 16.8099 17.5367 16.8099 17.1906V4.69274C16.8099 4.35004 16.5311 4.06784 16.1851 4.06784H4.93694Z" fill="#999999" stroke="#999999" stroke-width="0.3"/>
<path id="Vector_2" d="M13.0808 11.5833H6.18344C5.83738 11.5833 5.55854 11.3045 5.55854 10.9584C5.55854 10.6124 5.83738 10.3335 6.18344 10.3335H13.0808C13.4268 10.3335 13.7057 10.6124 13.7057 10.9584C13.7057 11.3045 13.4268 11.5833 13.0808 11.5833ZM14.9152 15.3092H6.18008C5.83402 15.3092 5.55518 15.0303 5.55518 14.6843C5.55518 14.3383 5.83402 14.0594 6.18008 14.0594H14.9152C15.2612 14.0594 15.5401 14.3382 15.5401 14.6843C15.5401 15.0304 15.2612 15.3092 14.9152 15.3092ZM5.55854 6.9067C5.55854 7.42409 5.9785 7.84405 6.49588 7.84405C7.01326 7.84405 7.43322 7.42409 7.43322 6.9067C7.43322 6.38932 7.01326 5.96936 6.49588 5.96936C5.9785 5.96936 5.55854 6.38932 5.55854 6.9067ZM9.60691 6.9067C9.60691 7.42409 10.0269 7.84405 10.5443 7.84405C11.0616 7.84405 11.4816 7.42409 11.4816 6.9067C11.4816 6.38932 11.0616 5.96936 10.5443 5.96936C10.0269 5.96936 9.60691 6.38932 9.60691 6.9067ZM13.6721 6.9067C13.6721 7.42409 14.092 7.84405 14.6094 7.84405C15.1268 7.84405 15.5468 7.42409 15.5468 6.9067C15.5468 6.38932 15.1268 5.96936 14.6094 5.96936C14.0921 5.96936 13.6721 6.38932 13.6721 6.9067H13.6721Z" fill="#999999" stroke="#999999" stroke-width="0.3"/>
</g>
</svg>
