<svg width="21" height="21" viewBox="0 0 21 21" fill="none" xmlns="http://www.w3.org/2000/svg">
<g id="Frame" clip-path="url(#clip0_15_9403)">
<path id="Vector" d="M18.0627 0.943359C18.7258 0.943359 19.3617 1.20675 19.8305 1.67559C20.2994 2.14443 20.5627 2.78032 20.5627 3.44336V10.5763C20.5628 10.6857 20.5412 10.7941 20.4993 10.8952C20.4575 10.9963 20.3961 11.0882 20.3187 11.1656C20.2413 11.243 20.1495 11.3044 20.0483 11.3463C19.9472 11.3882 19.8389 11.4097 19.7294 11.4097C19.62 11.4097 19.5116 11.3882 19.4105 11.3463C19.3094 11.3044 19.2175 11.243 19.1401 11.1656C19.0627 11.0882 19.0013 10.9963 18.9595 10.8952C18.9176 10.7941 18.8961 10.6857 18.8961 10.5763V7.61003H2.22941V18.4434C2.22934 18.6536 2.30875 18.8561 2.4517 19.0103C2.59466 19.1644 2.7906 19.2588 3.00024 19.2746L3.06274 19.2767H9.60524C9.71469 19.2767 9.82307 19.2982 9.92419 19.3401C10.0253 19.382 10.1172 19.4433 10.1946 19.5207C10.272 19.5981 10.3334 19.69 10.3753 19.7911C10.4171 19.8922 10.4387 20.0006 10.4387 20.11C10.4387 20.2195 10.4171 20.3278 10.3753 20.429C10.3334 20.5301 10.272 20.6219 10.1946 20.6993C10.1172 20.7767 10.0253 20.8381 9.92419 20.88C9.82307 20.9218 9.71469 20.9434 9.60524 20.9434H3.06274C2.3997 20.9434 1.76382 20.68 1.29498 20.2111C0.826136 19.7423 0.562744 19.1064 0.562744 18.4434V3.44336C0.562744 2.78032 0.826136 2.14443 1.29498 1.67559C1.76382 1.20675 2.3997 0.943359 3.06274 0.943359L18.0627 0.943359ZM15.7723 10.5267C17.5269 10.5267 18.4398 11.6979 18.4802 13.4784C19.0626 13.577 19.5913 13.8787 19.9725 14.3299C20.3537 14.7811 20.5628 15.3527 20.5627 15.9434V18.4434C20.5627 19.1064 20.2994 19.7423 19.8305 20.2111C19.3617 20.68 18.7258 20.9434 18.0627 20.9434H13.8961C13.233 20.9434 12.5972 20.68 12.1283 20.2111C11.6595 19.7423 11.3961 19.1064 11.3961 18.4434V15.9434C11.396 15.4262 11.5563 14.9218 11.8547 14.4996C12.1532 14.0773 12.5752 13.7579 13.0627 13.5854C13.0823 11.7146 13.9769 10.5267 15.7723 10.5267ZM18.0627 15.11H13.8961C13.6751 15.11 13.4631 15.1978 13.3068 15.3541C13.1505 15.5104 13.0627 15.7223 13.0627 15.9434V18.4434C13.0627 18.6644 13.1505 18.8763 13.3068 19.0326C13.4631 19.1889 13.6751 19.2767 13.8961 19.2767H18.0627C18.2838 19.2767 18.4957 19.1889 18.652 19.0326C18.8083 18.8763 18.8961 18.6644 18.8961 18.4434V15.9434C18.8961 15.7223 18.8083 15.5104 18.652 15.3541C18.4957 15.1978 18.2838 15.11 18.0627 15.11ZM7.46733 14.2767C7.57677 14.2767 7.68515 14.2982 7.78627 14.3401C7.88739 14.382 7.97927 14.4433 8.05667 14.5207C8.13406 14.5981 8.19546 14.69 8.23734 14.7911C8.27923 14.8922 8.30079 15.0006 8.30079 15.11C8.30079 15.2195 8.27923 15.3278 8.23734 15.429C8.19546 15.5301 8.13406 15.6219 8.05667 15.6993C7.97927 15.7767 7.88739 15.8381 7.78627 15.88C7.68515 15.9218 7.57677 15.9434 7.46733 15.9434H4.72941C4.61997 15.9434 4.51159 15.9218 4.41047 15.88C4.30935 15.8381 4.21747 15.7767 4.14007 15.6993C4.06268 15.6219 4.00128 15.5301 3.9594 15.429C3.91751 15.3278 3.89595 15.2195 3.89595 15.11C3.89595 15.0006 3.91751 14.8922 3.9594 14.7911C4.00128 14.69 4.06268 14.5981 4.14007 14.5207C4.21747 14.4433 4.30935 14.382 4.41047 14.3401C4.51159 14.2982 4.61997 14.2767 4.72941 14.2767H7.46733ZM15.7723 12.1934C15.0565 12.1934 14.7694 12.5217 14.7332 13.4434H16.8127C16.7836 12.5446 16.4815 12.1934 15.7727 12.1934H15.7723ZM10.9794 10.11C11.2004 10.11 11.4124 10.1978 11.5687 10.3541C11.7249 10.5104 11.8127 10.7223 11.8127 10.9434C11.8127 11.1644 11.7249 11.3763 11.5687 11.5326C11.4124 11.6889 11.2004 11.7767 10.9794 11.7767H4.72941C4.5084 11.7767 4.29644 11.6889 4.14016 11.5326C3.98387 11.3763 3.89608 11.1644 3.89608 10.9434C3.89608 10.7223 3.98387 10.5104 4.14016 10.3541C4.29644 10.1978 4.5084 10.11 4.72941 10.11H10.9794ZM18.0627 2.61003H3.06274C2.84173 2.61003 2.62977 2.69782 2.47349 2.8541C2.31721 3.01038 2.22941 3.22235 2.22941 3.44336V5.94336H18.8961V3.44336C18.8961 3.23312 18.8167 3.03062 18.6738 2.87646C18.5308 2.72231 18.3349 2.62788 18.1252 2.61211L18.0627 2.61003Z" fill="#999999"/>
</g>
<defs>
<clipPath id="clip0_15_9403">
<rect width="20" height="20" fill="white" transform="translate(0.562744 0.943359)"/>
</clipPath>
</defs>
</svg>
