<svg width="21" height="21" viewBox="0 0 21 21" fill="none" xmlns="http://www.w3.org/2000/svg">
<g id="Frame">
<path id="Vector" d="M19.3226 8.11335C19.3217 8.10335 19.3192 8.09466 19.3183 8.08735C19.3096 8.05044 19.2993 8.01444 19.2853 7.97974L17.7831 4.24966C17.5229 3.47595 16.7769 3.00155 15.9027 2.99976H5.36642C4.48084 2.99976 3.79343 3.46985 3.54455 4.21315L1.93082 8.01913C1.923 8.04173 1.91521 8.07464 1.90791 8.10853C1.79041 8.46763 1.73181 8.83663 1.73181 9.20653C1.7331 10.5084 2.44822 11.6958 3.59791 12.3082C3.59791 12.3082 3.59791 12.3091 3.5983 12.3091C3.59912 12.3091 3.59912 12.3091 3.59912 12.31C3.59912 12.31 3.59951 12.31 3.59951 12.3108C4.0731 12.5632 4.62951 12.6899 5.25662 12.6899C6.30791 12.6873 7.2806 12.2267 7.94451 11.4375C8.60421 12.2198 9.5699 12.6777 10.6195 12.6847C11.6603 12.6761 12.6231 12.2172 13.2805 11.4349C13.9441 12.2233 14.919 12.683 15.9745 12.683C16.6129 12.6795 17.1809 12.5459 17.6598 12.284C18.7917 11.6664 19.4943 10.4821 19.4934 9.19362C19.4952 8.82323 19.4345 8.45112 19.3226 8.11333L19.3226 8.11335ZM17.0458 11.3239C16.7561 11.4825 16.3936 11.5641 15.9729 11.5659C15.1931 11.5659 14.4828 11.1712 14.0673 10.5003C14.0378 10.4366 13.9875 10.332 13.8964 10.231C13.7898 10.1126 13.5981 9.97265 13.2823 9.97265C13.0264 9.97265 12.7957 10.0767 12.6656 10.2364C12.5789 10.3343 12.532 10.4307 12.4982 10.5005C12.0879 11.1626 11.3836 11.5617 10.6195 11.5677C9.84543 11.5633 9.13853 11.1653 8.72603 10.4983C8.69744 10.4393 8.64923 10.34 8.57423 10.2563C8.27324 9.89767 7.59933 9.91624 7.33693 10.2285C7.24023 10.3343 7.18943 10.4407 7.15693 10.5121C6.74365 11.1748 6.03193 11.573 5.25523 11.5746C4.84193 11.5746 4.48712 11.4967 4.20222 11.3448H4.20003C3.46753 10.9558 2.84873 10.035 2.84824 9.20675C2.84824 8.96216 2.88853 8.71505 2.97103 8.47476C2.97712 8.45745 2.98183 8.43835 2.98664 8.41874L4.57613 4.50565C4.60863 4.40944 4.70712 4.11796 5.20113 4.11796H16.0682C16.272 4.12966 16.6216 4.16565 16.7456 4.53075L18.234 8.39355C18.2388 8.41835 18.2452 8.44284 18.253 8.46685C18.3363 8.70796 18.3761 8.95306 18.3761 9.19585C18.378 10.0142 17.7666 10.9305 17.0458 11.3239ZM17.6078 13.2128C17.2539 13.2128 17.0492 13.4991 17.0492 13.8522L17.051 17.4214C17.051 17.62 16.8888 17.7814 16.6902 17.782L4.31433 17.7899C4.11574 17.7899 3.95443 17.6294 3.95443 17.4325L3.94962 13.9224C3.94923 13.5702 3.74404 13.2849 3.39103 13.2849H3.38972C3.03673 13.2858 2.83203 13.572 2.83253 13.9258L2.83683 17.3518C2.83683 18.2531 3.57283 18.9868 4.47744 18.9868L16.5289 18.979C17.4327 18.9773 18.1683 18.2418 18.1683 17.3398L18.1665 13.8521C18.1664 13.4983 17.9617 13.2128 17.6078 13.2128ZM15.6233 8.57437H5.37683C5.02292 8.57437 4.73623 8.36925 4.73623 8.01665C4.73623 7.66454 5.02333 7.45896 5.37683 7.45896H15.6233C15.9771 7.45896 16.2633 7.66454 16.2633 8.01665C16.2634 8.36915 15.9772 8.57435 15.6233 8.57435V8.57437Z" fill="#999999" stroke="#999999" stroke-width="0.3"/>
</g>
</svg>
