<svg width="21" height="21" viewBox="0 0 21 21" fill="none" xmlns="http://www.w3.org/2000/svg">
<g id="Frame">
<path id="Vector" d="M10.146 11.7767C11.11 11.7767 12.037 12.148 12.7345 12.8133C13.432 13.4787 13.8465 14.3872 13.8919 15.3501L13.896 15.5267V18.4434C13.8958 18.6558 13.8145 18.8601 13.6687 19.0145C13.5229 19.169 13.3236 19.2619 13.1115 19.2744C12.8995 19.2868 12.6907 19.2178 12.5278 19.0815C12.365 18.9452 12.2603 18.7518 12.2352 18.5409L12.2294 18.4434V15.5267C12.2295 14.9978 12.0283 14.4886 11.6668 14.1025C11.3053 13.7164 10.8105 13.4823 10.2827 13.4476L10.146 13.4434H5.97937C5.45044 13.4433 4.94128 13.6444 4.55517 14.0059C4.16905 14.3674 3.9349 14.8623 3.9002 15.3901L3.89604 15.5267V18.4434C3.8958 18.6558 3.81447 18.8601 3.66866 19.0145C3.52286 19.169 3.32358 19.2619 3.11154 19.2744C2.89951 19.2868 2.69072 19.2178 2.52784 19.0815C2.36497 18.9452 2.26029 18.7518 2.2352 18.5409L2.22937 18.4434V15.5267C2.22937 14.5628 2.60059 13.6358 3.26598 12.9383C3.93136 12.2408 4.8398 11.8263 5.8027 11.7809L5.97937 11.7767H10.146ZM15.146 11.7767C16.11 11.7767 17.037 12.148 17.7345 12.8133C18.432 13.4787 18.8465 14.3872 18.8919 15.3501L18.896 15.5267V18.4434C18.8958 18.6558 18.8145 18.8601 18.6687 19.0145C18.5229 19.169 18.3236 19.2619 18.1115 19.2744C17.8995 19.2868 17.6907 19.2178 17.5278 19.0815C17.365 18.9452 17.2603 18.7518 17.2352 18.5409L17.2294 18.4434V15.5267C17.2294 14.9742 17.0099 14.4443 16.6192 14.0536C16.2285 13.6629 15.6986 13.4434 15.146 13.4434C14.925 13.4434 14.7131 13.3556 14.5569 13.1993C14.4006 13.043 14.3128 12.8311 14.3128 12.6101C14.3128 12.3891 14.4006 12.1771 14.5569 12.0209C14.7131 11.8646 14.925 11.7768 15.146 11.7767ZM8.0627 4.27673C8.50046 4.2767 8.93394 4.36289 9.33839 4.5304C9.74284 4.6979 10.1103 4.94342 10.4199 5.25295C10.7294 5.56249 10.975 5.92996 11.1425 6.3344C11.3101 6.73883 11.3963 7.17231 11.3963 7.61007C11.3963 8.04783 11.3101 8.4813 11.1425 8.88574C10.975 9.29017 10.7294 9.65765 10.4199 9.96718C10.1103 10.2767 9.74284 10.5222 9.33839 10.6897C8.93394 10.8572 8.50046 10.9434 8.0627 10.9434C7.17869 10.9433 6.33091 10.5921 5.70585 9.967C5.08078 9.34189 4.72963 8.49408 4.72963 7.61007C4.72963 6.72606 5.08078 5.87825 5.70585 5.25313C6.33091 4.62802 7.17869 4.2768 8.0627 4.27673ZM14.0677 4.4309C14.7437 4.64397 15.334 5.0672 15.7528 5.639C16.1715 6.2108 16.3969 6.90132 16.396 7.61007C16.3969 8.31881 16.1715 9.00934 15.7528 9.58114C15.334 10.1529 14.7437 10.5762 14.0677 10.7892C13.8581 10.8519 13.6322 10.8296 13.4389 10.7271C13.2456 10.6247 13.1003 10.4503 13.0344 10.2417C12.9686 10.033 12.9874 9.80683 13.0869 9.61195C13.1863 9.41708 13.3584 9.26913 13.566 9.20007C13.9041 9.09365 14.1993 8.88198 14.4086 8.59595C14.6179 8.30992 14.7303 7.96449 14.7294 7.61007C14.7303 7.25565 14.6179 6.91022 14.4086 6.62418C14.1993 6.33815 13.9041 6.12648 13.566 6.02007C13.3584 5.951 13.1863 5.80306 13.0869 5.60818C12.9874 5.4133 12.9686 5.18712 13.0344 4.97848C13.1003 4.76984 13.2456 4.59547 13.4389 4.49302C13.6322 4.39056 13.8581 4.36825 14.0677 4.4309ZM8.0627 5.9434C7.62068 5.9434 7.19675 6.11899 6.88419 6.43156C6.57163 6.74412 6.39604 7.16804 6.39604 7.61007C6.39604 8.05209 6.57163 8.47602 6.88419 8.78858C7.19675 9.10114 7.62068 9.27673 8.0627 9.27673C8.50473 9.27673 8.92865 9.10114 9.24121 8.78858C9.55378 8.47602 9.72937 8.05209 9.72937 7.61007C9.72937 7.16804 9.55378 6.74412 9.24121 6.43156C8.92865 6.11899 8.50473 5.9434 8.0627 5.9434Z" fill="#999999"/>
</g>
</svg>
