<svg width="57" height="56" viewBox="0 0 57 56" fill="none" xmlns="http://www.w3.org/2000/svg">
<g id="Frame">
<rect x="0.400024" width="56" height="56" rx="16" fill="#0083FF" fill-opacity="0.1"/>
<path id="Vector" d="M43.1026 15.3979H38.9347C38.9347 13.6585 37.5235 12.2473 35.7841 12.2473H35.2591C33.5197 12.2473 32.1085 13.6585 32.1085 15.3979H24.7244C24.7244 14.5282 24.3733 13.7405 23.8022 13.1695C23.2312 12.5985 22.4436 12.2473 21.5739 12.2473H21.0488C19.3094 12.2473 17.8983 13.6585 17.8983 15.3979H13.6975C12.539 15.3979 11.5972 16.3365 11.5972 17.4982V41.6524C11.5972 42.8109 12.539 43.7527 13.6975 43.7527H43.1026C44.2611 43.7527 45.2029 42.8109 45.2029 41.6524V17.4982C45.2029 16.3365 44.2611 15.3979 43.1026 15.3979ZM34.2089 15.6604C34.2089 14.9351 34.7963 14.3477 35.5216 14.3477C36.2469 14.3477 36.8343 14.9351 36.8343 15.6604V18.2859C36.8343 19.0111 36.2469 19.5986 35.5216 19.5986C35.1606 19.5986 34.8324 19.4509 34.5928 19.2146C34.3566 18.975 34.2089 18.6469 34.2089 18.2859V15.6604ZM19.9986 15.6604C19.9986 14.9351 20.5861 14.3477 21.3113 14.3477C22.0366 14.3477 22.6241 14.9351 22.6241 15.6604V18.2859C22.6241 19.0111 22.0366 19.5986 21.3113 19.5986C20.9503 19.5986 20.6222 19.4509 20.3826 19.2146C20.1463 18.975 19.9986 18.6469 19.9986 18.2859V15.6604ZM43.1026 40.6022C43.1026 41.1831 42.6333 41.6524 42.0524 41.6524H14.7477C14.1668 41.6524 13.6975 41.1831 13.6975 40.6022V25.8997H43.1026V40.6022Z" fill="#0083FF"/>
<path id="&#230;&#156;&#136;" d="M25.88 34.2107H31.158V32.8667H25.964C25.95 33.2867 25.922 33.7487 25.88 34.2107ZM31.158 29.5907H25.964V30.9347H31.158V29.5907ZM33.328 27.6027V37.8227C33.328 38.9707 33.062 39.5447 32.348 39.8807C31.606 40.2307 30.584 40.2727 29.156 40.2727C29.044 39.6707 28.638 38.6767 28.316 38.1307C29.212 38.2007 30.388 38.1867 30.724 38.1867C31.046 38.1867 31.158 38.0747 31.158 37.7947V36.1847H25.572C25.194 37.7387 24.494 39.2367 23.22 40.2867C22.912 39.8667 22.086 39.0967 21.638 38.8167C23.696 37.1087 23.864 34.4907 23.864 32.4047V27.6027H33.328Z" fill="#0083FF"/>
</g>
</svg>
