<svg width="57" height="56" viewBox="0 0 57 56" fill="none" xmlns="http://www.w3.org/2000/svg">
<g id="Frame">
<rect x="0.599976" width="56" height="56" rx="16" fill="#0083FF" fill-opacity="0.1"/>
<path id="Vector" d="M43.3025 15.3979H39.1346C39.1346 13.6585 37.7234 12.2473 35.984 12.2473H35.4589C33.7196 12.2473 32.3084 13.6585 32.3084 15.3979H24.9243C24.9243 14.5282 24.5732 13.7405 24.0021 13.1695C23.4311 12.5985 22.6435 12.2473 21.7738 12.2473H21.2487C19.5093 12.2473 18.0981 13.6585 18.0981 15.3979H13.8974C12.7389 15.3979 11.7971 16.3365 11.7971 17.4982V41.6524C11.7971 42.8109 12.7389 43.7527 13.8974 43.7527H43.3025C44.461 43.7527 45.4028 42.8109 45.4028 41.6524V17.4982C45.4028 16.3365 44.461 15.3979 43.3025 15.3979ZM34.4088 15.6604C34.4088 14.9351 34.9962 14.3477 35.7215 14.3477C36.4468 14.3477 37.0342 14.9351 37.0342 15.6604V18.2859C37.0342 19.0111 36.4468 19.5986 35.7215 19.5986C35.3605 19.5986 35.0323 19.4509 34.7927 19.2146C34.5564 18.975 34.4088 18.6469 34.4088 18.2859V15.6604ZM20.1985 15.6604C20.1985 14.9351 20.7859 14.3477 21.5112 14.3477C22.2365 14.3477 22.824 14.9351 22.824 15.6604V18.2859C22.824 19.0111 22.2365 19.5986 21.5112 19.5986C21.1502 19.5986 20.822 19.4509 20.5825 19.2146C20.3462 18.975 20.1985 18.6469 20.1985 18.2859V15.6604ZM43.3025 40.6022C43.3025 41.1831 42.8332 41.6524 42.2523 41.6524H14.9476C14.3667 41.6524 13.8974 41.1831 13.8974 40.6022V25.8997H43.3025V40.6022Z" fill="#0083FF"/>
<path id="&#229;&#173;&#163;" d="M29.552 33.1747H27.55V31.9847C26.99 32.5307 26.332 33.0347 25.646 33.4827H30.728L31.148 33.3847L32.366 34.4767C31.582 34.9947 30.672 35.5407 29.72 35.9887H34.872V37.7247H29.608V38.3687C29.608 39.2927 29.384 39.7407 28.67 40.0067C27.956 40.2587 27.032 40.2587 25.884 40.2587C25.772 39.7267 25.464 38.9847 25.184 38.4947C25.926 38.5367 27.004 38.5367 27.256 38.5367C27.522 38.5227 27.606 38.4807 27.606 38.2987V37.7247H22.328V35.9887H27.606V35.3447C27.83 35.2607 28.068 35.1487 28.292 35.0367H24.876V33.9307C24.302 34.2387 23.714 34.5047 23.126 34.7147C22.846 34.2667 22.286 33.5527 21.88 33.1747C23.196 32.8107 24.526 32.1947 25.562 31.4667H22.37V29.7727H27.55V29.1847C26.22 29.2687 24.89 29.3107 23.63 29.3247C23.588 28.8767 23.364 28.1347 23.182 27.7287C26.332 27.6867 29.888 27.4487 31.946 26.9727L33.612 28.3867C32.394 28.6667 31.008 28.8767 29.552 29.0307V29.7727H34.858V31.4667H31.596C32.632 32.1387 33.948 32.6987 35.278 33.0347C34.858 33.4127 34.298 34.1547 34.018 34.6307C32.366 34.0847 30.756 33.1047 29.552 31.9287V33.1747Z" fill="#0083FF"/>
</g>
</svg>
