<svg width="57" height="56" viewBox="0 0 57 56" fill="none" xmlns="http://www.w3.org/2000/svg">
<g id="Frame">
<rect x="0.199951" width="56" height="56" rx="16" fill="#0083FF" fill-opacity="0.1"/>
<path id="Vector" d="M42.9025 15.3979H38.7346C38.7346 13.6585 37.3234 12.2473 35.5841 12.2473H35.059C33.3196 12.2473 31.9084 13.6585 31.9084 15.3979H24.5244C24.5244 14.5282 24.1732 13.7405 23.6022 13.1695C23.0311 12.5985 22.2435 12.2473 21.3738 12.2473H20.8487C19.1094 12.2473 17.6982 13.6585 17.6982 15.3979H13.4975C12.339 15.3979 11.3971 16.3365 11.3971 17.4982V41.6524C11.3971 42.8109 12.339 43.7527 13.4975 43.7527H42.9025C44.061 43.7527 45.0029 42.8109 45.0029 41.6524V17.4982C45.0029 16.3365 44.061 15.3979 42.9025 15.3979ZM34.0088 15.6604C34.0088 14.9351 34.5962 14.3477 35.3215 14.3477C36.0468 14.3477 36.6342 14.9351 36.6342 15.6604V18.2859C36.6342 19.0111 36.0468 19.5986 35.3215 19.5986C34.9605 19.5986 34.6323 19.4509 34.3928 19.2146C34.1565 18.975 34.0088 18.6469 34.0088 18.2859V15.6604ZM19.7985 15.6604C19.7985 14.9351 20.386 14.3477 21.1113 14.3477C21.8365 14.3477 22.424 14.9351 22.424 15.6604V18.2859C22.424 19.0111 21.8365 19.5986 21.1113 19.5986C20.7503 19.5986 20.4221 19.4509 20.1825 19.2146C19.9462 18.975 19.7985 18.6469 19.7985 18.2859V15.6604ZM42.9025 40.6022C42.9025 41.1831 42.4332 41.6524 41.8523 41.6524H14.5476C13.9668 41.6524 13.4975 41.1831 13.4975 40.6022V25.8997H42.9025V40.6022Z" fill="#0083FF"/>
<path id="&#230;&#151;&#165;" d="M25.274 37.1367H31.084V34.4067H25.274V37.1367ZM31.084 29.8287H25.274V32.3907H31.084V29.8287ZM23.174 27.7707H33.282V40.1187H31.084V39.1947H25.274V40.1187H23.174V27.7707Z" fill="#0083FF"/>
</g>
</svg>
