<svg width="56" height="56" viewBox="0 0 56 56" fill="none" xmlns="http://www.w3.org/2000/svg">
<g id="Frame">
<rect width="56" height="56" rx="16" fill="#0083FF" fill-opacity="0.1"/>
<path id="Vector" opacity="0.12" d="M17.1979 43.4495H40.7331C41.2331 43.4495 41.6381 43.9907 41.6381 44.657C41.6381 45.3221 41.2331 45.8634 40.7331 45.8634H17.1979C16.6979 45.8634 16.2929 45.3221 16.2929 44.657C16.2929 43.9907 16.6979 43.4495 17.1979 43.4495ZM43.5507 12.0689C43.9324 12.0676 44.3106 12.1414 44.6637 12.2863C45.0168 12.4311 45.338 12.6441 45.6088 12.9131C45.8796 13.182 46.0948 13.5017 46.2421 13.8538C46.3894 14.2059 46.4658 14.5836 46.4671 14.9653V36.0353C46.4671 37.3614 45.9403 38.6333 45.0026 39.571C44.0649 40.5088 42.793 41.0356 41.4669 41.0356H16.4654C15.1392 41.0356 13.8674 40.5088 12.9296 39.571C11.9919 38.6333 11.4651 37.3614 11.4651 36.0353V14.9653C11.4661 14.5835 11.5423 14.2057 11.6895 13.8534C11.8366 13.5012 12.0518 13.1814 12.3227 12.9123C12.5936 12.6433 12.9148 12.4303 13.2681 12.2856C13.6214 12.1409 13.9997 12.0672 14.3815 12.0689H43.5507ZM39.1755 32.3451H18.7568C17.9517 32.3451 17.2992 32.9951 17.2992 33.7951C17.2992 34.5939 17.9517 35.2427 18.7568 35.2427H39.1755C39.9805 35.2427 40.6331 34.5927 40.6331 33.7939C40.6331 32.9939 39.9805 32.3463 39.1755 32.3463V32.3451ZM40.3505 17.863H33.6476C33.0639 17.863 32.8726 18.4305 33.2601 18.8068L35.004 20.5106L29.9612 24.6696C29.5737 25.0459 28.9899 25.0459 28.6011 24.4784L25.1071 21.0782C24.7196 20.6981 23.9433 20.6981 23.5558 21.0782L17.7342 26.7497C17.1529 27.3148 17.1529 28.4498 17.7342 29.0174C18.3167 29.5849 19.2893 29.5849 20.0643 29.0174L23.5558 25.6134C23.9433 25.2346 24.7196 25.2346 25.1071 25.6134L28.4073 29.0174C28.9899 29.3936 29.5724 29.3936 29.9612 29.0174L37.5266 22.7783L39.6617 24.8584C40.0493 25.2346 40.6331 24.8584 40.6331 24.4784V18.138C40.6308 18.0645 40.6001 17.9947 40.5474 17.9434C40.4946 17.8921 40.4241 17.8633 40.3505 17.863Z" fill="#0083FF"/>
<path id="Vector_2" d="M16.2657 42.5173H39.8008C40.3008 42.5173 40.7059 43.0586 40.7059 43.7249C40.7059 44.3899 40.3008 44.9312 39.8008 44.9312H16.2657C15.7656 44.9312 15.3606 44.3899 15.3606 43.7249C15.3606 43.0586 15.7656 42.5173 16.2657 42.5173ZM42.6185 11.1367C43.0001 11.1354 43.3783 11.2093 43.7315 11.3542C44.0846 11.499 44.4057 11.712 44.6766 11.9809C44.9474 12.2499 45.1626 12.5696 45.3098 12.9217C45.4571 13.2738 45.5336 13.6515 45.5349 14.0332V35.1032C45.5349 36.4293 45.0081 37.7012 44.0703 38.6389C43.1326 39.5766 41.8608 40.1034 40.5346 40.1034H15.5331C14.207 40.1034 12.9351 39.5766 11.9974 38.6389C11.0597 37.7012 10.5328 36.4293 10.5328 35.1032V14.0332C10.5338 13.6514 10.6101 13.2736 10.7572 12.9213C10.9044 12.569 11.1196 12.2492 11.3904 11.9802C11.6613 11.7112 11.9826 11.4982 12.3359 11.3535C12.6891 11.2088 13.0675 11.1351 13.4493 11.1367H42.6185ZM38.2432 31.4129H17.8245C17.0195 31.4129 16.3669 32.063 16.3669 32.863C16.3669 33.6618 17.0195 34.3106 17.8245 34.3106H38.2432C39.0483 34.3106 39.7008 33.6606 39.7008 32.8618C39.7008 32.0617 39.0483 31.4142 38.2432 31.4142V31.4129ZM39.4183 16.9308H32.7154C32.1316 16.9308 31.9403 17.4984 32.3279 17.8746L34.0717 19.5785L29.0289 23.7375C28.6414 24.1138 28.0576 24.1138 27.6688 23.5462L24.1749 20.146C23.7874 19.766 23.0111 19.766 22.6235 20.146L16.802 25.8176C16.2207 26.3826 16.2207 27.5177 16.802 28.0852C17.3845 28.6528 18.357 28.6528 19.1321 28.0852L22.6235 24.6813C23.0111 24.3025 23.7874 24.3025 24.1749 24.6813L27.4751 28.0852C28.0576 28.4615 28.6402 28.4615 29.0289 28.0852L36.5944 21.8461L38.7295 23.9262C39.117 24.3025 39.7008 23.9262 39.7008 23.5462V17.2059C39.6985 17.1323 39.6678 17.0626 39.6151 17.0113C39.5624 16.96 39.4918 16.9311 39.4183 16.9308Z" fill="#0083FF"/>
</g>
</svg>
