<svg width="57" height="56" viewBox="0 0 57 56" fill="none" xmlns="http://www.w3.org/2000/svg">
<g id="Frame">
<rect x="0.799927" width="56" height="56" rx="16" fill="#0083FF" fill-opacity="0.1"/>
<path id="Vector" d="M43.5024 15.3979H39.3345C39.3345 13.6585 37.9233 12.2473 36.184 12.2473H35.6589C33.9195 12.2473 32.5083 13.6585 32.5083 15.3979H25.1243C25.1243 14.5282 24.7731 13.7405 24.2021 13.1695C23.631 12.5985 22.8434 12.2473 21.9737 12.2473H21.4486C19.7093 12.2473 18.2981 13.6585 18.2981 15.3979H14.0974C12.9389 15.3979 11.997 16.3365 11.997 17.4982V41.6524C11.997 42.8109 12.9389 43.7527 14.0974 43.7527H43.5024C44.6609 43.7527 45.6028 42.8109 45.6028 41.6524V17.4982C45.6028 16.3365 44.6609 15.3979 43.5024 15.3979ZM34.6087 15.6604C34.6087 14.9351 35.1962 14.3477 35.9214 14.3477C36.6467 14.3477 37.2342 14.9351 37.2342 15.6604V18.2859C37.2342 19.0111 36.6467 19.5986 35.9214 19.5986C35.5604 19.5986 35.2323 19.4509 34.9927 19.2146C34.7564 18.975 34.6087 18.6469 34.6087 18.2859V15.6604ZM20.3985 15.6604C20.3985 14.9351 20.9859 14.3477 21.7112 14.3477C22.4365 14.3477 23.0239 14.9351 23.0239 15.6604V18.2859C23.0239 19.0111 22.4365 19.5986 21.7112 19.5986C21.3502 19.5986 21.022 19.4509 20.7824 19.2146C20.5461 18.975 20.3985 18.6469 20.3985 18.2859V15.6604ZM43.5024 40.6022C43.5024 41.1831 43.0331 41.6524 42.4522 41.6524H15.1476C14.5667 41.6524 14.0974 41.1831 14.0974 40.6022V25.8997H43.5024V40.6022Z" fill="#0083FF"/>
<path id="&#229;&#185;&#180;" d="M26.5179 35.4567H28.5479V33.7207H26.5179V35.4567ZM28.5479 30.4027H25.7759C25.4819 30.9207 25.1599 31.3967 24.8379 31.8307H28.5479V30.4027ZM35.2959 35.4567V37.4167H30.6479V40.2867H28.5479V37.4167H22.3039V35.4567H24.4739V32.3067C24.3059 32.5027 24.1379 32.6987 23.9699 32.8667C23.5779 32.5027 22.7099 31.8307 22.2199 31.5367C23.4379 30.4867 24.4879 28.7087 25.0479 26.9307L27.1339 27.4627C27.0219 27.7847 26.8959 28.1207 26.7559 28.4427H34.4699V30.4027H30.6479V31.8307H34.1339V33.7207H30.6479V35.4567H35.2959Z" fill="#0083FF"/>
</g>
</svg>
